SplineFontDB: 3.0
FontName: PneuCuniforme
FullName: PneuCuniforme
FamilyName: PneuCuniforme
Weight: Regular
Copyright: Copyright (c) 2014, Pierre VALDIVIELSO
UComments: "2014-7-26: Created with FontForge (http://fontforge.org)" 
Version: 000.500
ItalicAngle: 0
UnderlinePosition: -100
UnderlineWidth: 50
Ascent: 800
Descent: 200
LayerCount: 2
Layer: 0 0 "Back"  1
Layer: 1 0 "Fore"  0
XUID: [1021 1007 647262216 6359362]
FSType: 0
OS2Version: 0
OS2_WeightWidthSlopeOnly: 0
OS2_UseTypoMetrics: 1
CreationTime: 1406393362
ModificationTime: 1406471410
OS2TypoAscent: 0
OS2TypoAOffset: 1
OS2TypoDescent: 0
OS2TypoDOffset: 1
OS2TypoLinegap: 90
OS2WinAscent: 0
OS2WinAOffset: 1
OS2WinDescent: 0
OS2WinDOffset: 1
HheadAscent: 0
HheadAOffset: 1
HheadDescent: 0
HheadDOffset: 1
MarkAttachClasses: 1
DEI: 91125
Encoding: ISO8859-1
UnicodeInterp: none
NameList: AGL For New Fonts
DisplaySize: -48
AntiAlias: 1
FitToEm: 1
WinInfo: 51 17 7
BeginPrivate: 0
EndPrivate
Grid
360 1300 m 0
 360 -700 l 1024
856 1300 m 0
 856 -700 l 1024
964 1300 m 0
 964 -700 l 1024
-1000 1553.99995369 m 0
 2000 1553.99995369 l 1024
-1000 973.632354736 m 0
 2000 973.632354736 l 1024
EndSplineSet
BeginChars: 256 29

StartChar: A
Encoding: 65 65 0
Width: 755
VWidth: 0
Flags: HW
HStem: 232.285 71.7051<295.931 359.498>
VStem: 293.221 68.9922<234.779 301.503> 638.482 27.8398<-15.3806 4.71159>
LayerCount: 2
Fore
SplineSet
147 800 m 1
 128 775 l 1
 354 554 520 340 638 -24 c 1
 666 -12 l 1
 546 356 376 577 147 800 c 1
362 268 m 2
 362 248 347 232 328 232 c 0
 309 232 293 248 293 268 c 2
 293 268 l 0
 293 288 309 304 328 304 c 0
 347 304 362 288 362 268 c 0
 362 268 l 2
537 777 m 1
 518 802 l 1
 289 574 115 349 -5 -12 c 1
 22 -24 l 1
 141 333 311 552 537 777 c 1
EndSplineSet
Validated: 5
EndChar

StartChar: B
Encoding: 66 66 2
Width: 544
VWidth: 0
Flags: W
HStem: 141.667 52.7822<-6.80577 43.122>
VStem: -7.20215 50.7256<141.971 194.145>
LayerCount: 2
Fore
SplineSet
453.649414062 543.186523438 m 1
 432.629882812 570.137695312 l 1
 313.494140625 469.56640625 178.48828125 389.474609375 0.5693359375 326.89453125 c 1
 11.2529296875 294.016601562 l 1
 192.528320312 357.77734375 331.596679688 440.154296875 453.649414062 543.186523438 c 1
432.614257812 543.1953125 m 1
 453.637695312 570.142578125 l 1
 331.603515625 673.190429688 192.533203125 755.560546875 11.251953125 819.307617188 c 1
 0.5703125 786.428710938 l 1
 178.49609375 723.862304688 313.501953125 643.77734375 432.614257812 543.1953125 c 1
453.649414062 241.76953125 m 1
 432.62890625 268.719726562 l 1
 313.495117188 168.143554688 178.48828125 88.0576171875 0.5693359375 25.4775390625 c 1
 11.2529296875 -7.4013671875 l 1
 192.528320312 56.359375 331.596679688 138.73046875 453.649414062 241.76953125 c 1
18.1708984375 141.666992188 m 1
 4.16015625 141.666992188 -7.2021484375 153.475585938 -7.2021484375 168.051757812 c 0
 -7.2021484375 182.627929688 4.1201171875 194.44921875 18.1513671875 194.44921875 c 1
 32.1611328125 194.44921875 43.50390625 182.669921875 43.5234375 168.065429688 c 0
 43.509765625 153.495117188 32.1875 141.666992188 18.1708984375 141.666992188 c 1
432.615234375 241.784179688 m 1
 453.63671875 268.732421875 l 1
 331.596679688 371.779296875 192.52734375 454.135742188 11.2529296875 517.895507812 c 1
 0.5693359375 485.018554688 l 1
 178.489257812 422.4375 313.495117188 342.365234375 432.615234375 241.784179688 c 1
EndSplineSet
Validated: 524293
EndChar

StartChar: C
Encoding: 67 67 3
Width: 957
VWidth: 0
Flags: W
LayerCount: 2
Fore
SplineSet
720.892578125 -9.7373046875 m 1
 729 14.24609375 l 1
 411.168945312 121.688476562 202.953125 272.840820312 6.060546875 478.0859375 c 1
 -12.208984375 460.560546875 l 1
 186.640625 253.275390625 399.236328125 98.998046875 720.892578125 -9.7373046875 c 1
729 786 m 1
 720.893554688 809.983398438 l 1
 399.224609375 701.259765625 186.640625 546.995117188 -12.220703125 339.723632812 c 1
 6.046875 322.196289062 l 1
 202.953125 527.4296875 411.15625 678.569335938 729 786 c 1
720.892578125 -9.7373046875 m 1
 729 14.24609375 l 1
 411.168945312 121.688476562 202.953125 272.840820312 6.060546875 478.0859375 c 1
 -12.208984375 460.560546875 l 1
 186.640625 253.275390625 399.236328125 98.998046875 720.892578125 -9.7373046875 c 1
729 786 m 1
 720.893554688 809.983398438 l 1
 399.224609375 701.259765625 186.640625 546.995117188 -12.220703125 339.723632812 c 1
 6.046875 322.196289062 l 1
 202.953125 527.4296875 411.15625 678.569335938 729 786 c 1
720.892578125 -9.7373046875 m 1
 729 14.24609375 l 1
 411.168945312 121.688476562 202.953125 272.840820312 6.060546875 478.0859375 c 1
 -12.208984375 460.560546875 l 1
 186.640625 253.275390625 399.236328125 98.998046875 720.892578125 -9.7373046875 c 1
729 786 m 1
 720.893554688 809.983398438 l 1
 399.224609375 701.259765625 186.640625 546.995117188 -12.220703125 339.723632812 c 1
 6.046875 322.196289062 l 1
 202.953125 527.4296875 411.15625 678.569335938 729 786 c 1
720.892578125 -9.7373046875 m 1
 729 14.24609375 l 1
 411.168945312 121.688476562 202.953125 272.840820312 6.060546875 478.0859375 c 1
 -12.208984375 460.560546875 l 1
 186.640625 253.275390625 399.236328125 98.998046875 720.892578125 -9.7373046875 c 1
729 786 m 1
 720.893554688 809.983398438 l 1
 399.224609375 701.259765625 186.640625 546.995117188 -12.220703125 339.723632812 c 1
 6.046875 322.196289062 l 1
 202.953125 527.4296875 411.15625 678.569335938 729 786 c 1
720.892578125 -9.7373046875 m 1
 729 14.24609375 l 1
 411.168945312 121.688476562 202.953125 272.840820312 6.060546875 478.0859375 c 1
 -12.208984375 460.560546875 l 1
 186.640625 253.275390625 399.236328125 98.998046875 720.892578125 -9.7373046875 c 1
729 786 m 1
 720.893554688 809.983398438 l 1
 399.224609375 701.259765625 186.640625 546.995117188 -12.220703125 339.723632812 c 1
 6.046875 322.196289062 l 1
 202.953125 527.4296875 411.15625 678.569335938 729 786 c 1
720.892578125 -9.7373046875 m 1
 729 14.24609375 l 1
 411.168945312 121.688476562 202.953125 272.840820312 6.060546875 478.0859375 c 1
 -12.208984375 460.560546875 l 1
 186.640625 253.275390625 399.236328125 98.998046875 720.892578125 -9.7373046875 c 1
729 786 m 1
 720.893554688 809.983398438 l 1
 399.224609375 701.259765625 186.640625 546.995117188 -12.220703125 339.723632812 c 1
 6.046875 322.196289062 l 1
 202.953125 527.4296875 411.15625 678.569335938 729 786 c 1
720.892578125 -9.7373046875 m 1
 729 14.24609375 l 1
 411.168945312 121.688476562 202.953125 272.840820312 6.060546875 478.0859375 c 1
 -12.208984375 460.560546875 l 1
 186.640625 253.275390625 399.236328125 98.998046875 720.892578125 -9.7373046875 c 1
729 786 m 1
 720.893554688 809.983398438 l 1
 399.224609375 701.259765625 186.640625 546.995117188 -12.220703125 339.723632812 c 1
 6.046875 322.196289062 l 1
 202.953125 527.4296875 411.15625 678.569335938 729 786 c 1
720.892578125 -9.7373046875 m 1
 729 14.24609375 l 1
 411.168945312 121.688476562 202.953125 272.840820312 6.060546875 478.0859375 c 1
 -12.208984375 460.560546875 l 1
 186.640625 253.275390625 399.236328125 98.998046875 720.892578125 -9.7373046875 c 1
729 786 m 1
 720.893554688 809.983398438 l 1
 399.224609375 701.259765625 186.640625 546.995117188 -12.220703125 339.723632812 c 1
 6.046875 322.196289062 l 1
 202.953125 527.4296875 411.15625 678.569335938 729 786 c 1
720.892578125 -9.7373046875 m 1
 729 14.24609375 l 1
 411.168945312 121.688476562 202.953125 272.840820312 6.060546875 478.0859375 c 1
 -12.208984375 460.560546875 l 1
 186.640625 253.275390625 399.236328125 98.998046875 720.892578125 -9.7373046875 c 1
729 786 m 1
 720.893554688 809.983398438 l 1
 399.224609375 701.259765625 186.640625 546.995117188 -12.220703125 339.723632812 c 1
 6.046875 322.196289062 l 1
 202.953125 527.4296875 411.15625 678.569335938 729 786 c 1
720.892578125 -9.7373046875 m 1
 729 14.24609375 l 1
 411.168945312 121.688476562 202.953125 272.840820312 6.060546875 478.0859375 c 1
 -12.208984375 460.560546875 l 1
 186.640625 253.275390625 399.236328125 98.998046875 720.892578125 -9.7373046875 c 1
729 786 m 1
 720.893554688 809.983398438 l 1
 399.224609375 701.259765625 186.640625 546.995117188 -12.220703125 339.723632812 c 1
 6.046875 322.196289062 l 1
 202.953125 527.4296875 411.15625 678.569335938 729 786 c 1
720.892578125 -9.7373046875 m 1
 729 14.24609375 l 1
 411.168945312 121.688476562 202.953125 272.840820312 6.060546875 478.0859375 c 1
 -12.208984375 460.560546875 l 1
 186.640625 253.275390625 399.236328125 98.998046875 720.892578125 -9.7373046875 c 1
729 786 m 1
 720.893554688 809.983398438 l 1
 399.224609375 701.259765625 186.640625 546.995117188 -12.220703125 339.723632812 c 1
 6.046875 322.196289062 l 1
 202.953125 527.4296875 411.15625 678.569335938 729 786 c 1
720.892578125 -9.7373046875 m 1
 729 14.24609375 l 1
 411.168945312 121.688476562 202.953125 272.840820312 6.060546875 478.0859375 c 1
 -12.208984375 460.560546875 l 1
 186.640625 253.275390625 399.236328125 98.998046875 720.892578125 -9.7373046875 c 1
729 786 m 1
 720.893554688 809.983398438 l 1
 399.224609375 701.259765625 186.640625 546.995117188 -12.220703125 339.723632812 c 1
 6.046875 322.196289062 l 1
 202.953125 527.4296875 411.15625 678.569335938 729 786 c 1
EndSplineSet
Validated: 524293
EndChar

StartChar: D
Encoding: 68 68 5
Width: 857
VWidth: 0
Flags: HW
HStem: 359 78<57.7672 128.233>
VStem: 54 78<362.767 433.233>
LayerCount: 2
Fore
SplineSet
71.107421875 -6.7373046875 m 1
 392.763671875 101.998046875 605.359375 256.275390625 804.208984375 463.560546875 c 1
 785.939453125 481.0859375 l 1
 589.046875 275.840820312 380.831054688 124.688476562 63 17.24609375 c 1
 71.107421875 -6.7373046875 l 1
63 789 m 1
 380.84375 681.569335938 589.046875 530.4296875 785.953125 325.196289062 c 1
 804.220703125 342.723632812 l 1
 605.359375 549.995117188 392.775390625 704.259765625 71.1064453125 812.983398438 c 1
 63 789 l 1
71.107421875 -6.7373046875 m 1
 392.763671875 101.998046875 605.359375 256.275390625 804.208984375 463.560546875 c 1
 785.939453125 481.0859375 l 1
 589.046875 275.840820312 380.831054688 124.688476562 63 17.24609375 c 1
 71.107421875 -6.7373046875 l 1
63 789 m 1
 380.84375 681.569335938 589.046875 530.4296875 785.953125 325.196289062 c 1
 804.220703125 342.723632812 l 1
 605.359375 549.995117188 392.775390625 704.259765625 71.1064453125 812.983398438 c 1
 63 789 l 1
71.107421875 -6.7373046875 m 1
 392.763671875 101.998046875 605.359375 256.275390625 804.208984375 463.560546875 c 1
 785.939453125 481.0859375 l 1
 589.046875 275.840820312 380.831054688 124.688476562 63 17.24609375 c 1
 71.107421875 -6.7373046875 l 1
63 789 m 1
 380.84375 681.569335938 589.046875 530.4296875 785.953125 325.196289062 c 1
 804.220703125 342.723632812 l 1
 605.359375 549.995117188 392.775390625 704.259765625 71.1064453125 812.983398438 c 1
 63 789 l 1
71.107421875 -6.7373046875 m 1
 392.763671875 101.998046875 605.359375 256.275390625 804.208984375 463.560546875 c 1
 785.939453125 481.0859375 l 1
 589.046875 275.840820312 380.831054688 124.688476562 63 17.24609375 c 1
 71.107421875 -6.7373046875 l 1
63 789 m 1
 380.84375 681.569335938 589.046875 530.4296875 785.953125 325.196289062 c 1
 804.220703125 342.723632812 l 1
 605.359375 549.995117188 392.775390625 704.259765625 71.1064453125 812.983398438 c 1
 63 789 l 1
71.107421875 -6.7373046875 m 1
 392.763671875 101.998046875 605.359375 256.275390625 804.208984375 463.560546875 c 1
 785.939453125 481.0859375 l 1
 589.046875 275.840820312 380.831054688 124.688476562 63 17.24609375 c 1
 71.107421875 -6.7373046875 l 1
63 789 m 1
 380.84375 681.569335938 589.046875 530.4296875 785.953125 325.196289062 c 1
 804.220703125 342.723632812 l 1
 605.359375 549.995117188 392.775390625 704.259765625 71.1064453125 812.983398438 c 1
 63 789 l 1
71.107421875 -6.7373046875 m 1
 392.763671875 101.998046875 605.359375 256.275390625 804.208984375 463.560546875 c 1
 785.939453125 481.0859375 l 1
 589.046875 275.840820312 380.831054688 124.688476562 63 17.24609375 c 1
 71.107421875 -6.7373046875 l 1
63 789 m 1
 380.84375 681.569335938 589.046875 530.4296875 785.953125 325.196289062 c 1
 804.220703125 342.723632812 l 1
 605.359375 549.995117188 392.775390625 704.259765625 71.1064453125 812.983398438 c 1
 63 789 l 1
71.107421875 -6.7373046875 m 1
 392.763671875 101.998046875 605.359375 256.275390625 804.208984375 463.560546875 c 1
 785.939453125 481.0859375 l 1
 589.046875 275.840820312 380.831054688 124.688476562 63 17.24609375 c 1
 71.107421875 -6.7373046875 l 1
63 789 m 1
 380.84375 681.569335938 589.046875 530.4296875 785.953125 325.196289062 c 1
 804.220703125 342.723632812 l 1
 605.359375 549.995117188 392.775390625 704.259765625 71.1064453125 812.983398438 c 1
 63 789 l 1
71.107421875 -6.7373046875 m 1
 392.763671875 101.998046875 605.359375 256.275390625 804.208984375 463.560546875 c 1
 785.939453125 481.0859375 l 1
 589.046875 275.840820312 380.831054688 124.688476562 63 17.24609375 c 1
 71.107421875 -6.7373046875 l 1
63 789 m 1
 380.84375 681.569335938 589.046875 530.4296875 785.953125 325.196289062 c 1
 804.220703125 342.723632812 l 1
 605.359375 549.995117188 392.775390625 704.259765625 71.1064453125 812.983398438 c 1
 63 789 l 1
71.107421875 -6.7373046875 m 1
 392.763671875 101.998046875 605.359375 256.275390625 804.208984375 463.560546875 c 1
 785.939453125 481.0859375 l 1
 589.046875 275.840820312 380.831054688 124.688476562 63 17.24609375 c 1
 71.107421875 -6.7373046875 l 1
63 789 m 1
 380.84375 681.569335938 589.046875 530.4296875 785.953125 325.196289062 c 1
 804.220703125 342.723632812 l 1
 605.359375 549.995117188 392.775390625 704.259765625 71.1064453125 812.983398438 c 1
 63 789 l 1
71.107421875 -6.7373046875 m 1
 392.763671875 101.998046875 605.359375 256.275390625 804.208984375 463.560546875 c 1
 785.939453125 481.0859375 l 1
 589.046875 275.840820312 380.831054688 124.688476562 63 17.24609375 c 1
 71.107421875 -6.7373046875 l 1
63 789 m 1
 380.84375 681.569335938 589.046875 530.4296875 785.953125 325.196289062 c 1
 804.220703125 342.723632812 l 1
 605.359375 549.995117188 392.775390625 704.259765625 71.1064453125 812.983398438 c 1
 63 789 l 1
71.107421875 -6.7373046875 m 1
 392.763671875 101.998046875 605.359375 256.275390625 804.208984375 463.560546875 c 1
 785.939453125 481.0859375 l 1
 589.046875 275.840820312 380.831054688 124.688476562 63 17.24609375 c 1
 71.107421875 -6.7373046875 l 1
63 789 m 1
 380.84375 681.569335938 589.046875 530.4296875 785.953125 325.196289062 c 1
 804.220703125 342.723632812 l 1
 605.359375 549.995117188 392.775390625 704.259765625 71.1064453125 812.983398438 c 1
 63 789 l 1
71.107421875 -6.7373046875 m 1
 392.763671875 101.998046875 605.359375 256.275390625 804.208984375 463.560546875 c 1
 785.939453125 481.0859375 l 1
 589.046875 275.840820312 380.831054688 124.688476562 63 17.24609375 c 1
 71.107421875 -6.7373046875 l 1
63 789 m 1
 380.84375 681.569335938 589.046875 530.4296875 785.953125 325.196289062 c 1
 804.220703125 342.723632812 l 1
 605.359375 549.995117188 392.775390625 704.259765625 71.1064453125 812.983398438 c 1
 63 789 l 1
54 398 m 0
 54 420 71 437 93 437 c 0
 115 437 132 420 132 398 c 0
 132 376 115 359 93 359 c 0
 71 359 54 376 54 398 c 0
EndSplineSet
Validated: 524293
EndChar

StartChar: E
Encoding: 69 69 6
Width: 936
VWidth: 0
Flags: HW
HStem: 29.0752 63.792<32.6299 49.1953 49.1953 65.8096> 383.326 25.79<-6.70898 131.874>
VStem: 19.1631 60.1133<43.3789 78.5498>
LayerCount: 2
Fore
SplineSet
49 93 m 1
 66 93 79 79 79 61 c 0
 79 43 66 29 49 29 c 2
 49 29 l 2
 33 29 19 43 19 61 c 0
 19 79 33 93 49 93 c 1
 49 93 l 1
-7 409 m 1
 9.59517687859 409.360764715 26.0927403726 409.547994524 42.507907041 409.547994524 c 0
 299.098929678 409.547994524 535.557216118 363.800499774 810 220 c 1
 799 197 l 1
 527.718727179 338.742118325 296.088665482 383.559053904 42.903302362 383.559053904 c 0
 26.3665089142 383.559053904 9.73775958451 383.367862848 -7 383 c 1
 -7 409 l 1
49 93 m 1
 66 93 79 79 79 61 c 0
 79 43 66 29 49 29 c 2
 49 29 l 2
 33 29 19 43 19 61 c 0
 19 79 33 93 49 93 c 1
 49 93 l 1
58 488 m 1
 247 279 447 125 752 16 c 1
 744 -9 l 1
 435 102 231 259 40 470 c 1
 58 488 l 1
47 341 m 1
 238 552 442 709 751 820 c 1
 758 795 l 1
 453 686 253 532 64 323 c 1
 47 341 l 1
EndSplineSet
Validated: 524293
EndChar

StartChar: F
Encoding: 70 70 7
Width: 1024
VWidth: 0
Flags: HW
HStem: 519.884 23.5566<31.4912 213.843> 688.325 23.5566<208.539 282.289>
VStem: 287.554 23.5566<713.592 799.514>
LayerCount: 2
Fore
SplineSet
31 543 m 1
 31 520 l 1
 46.1547615516 520.285938897 61.2179507239 520.434519225 76.2026595696 520.434519225 c 0
 323.244366024 520.434519225 548.955390464 480.050898658 812 349 c 1
 823 371 l 1
 558.498502768 501.848797217 329.812195182 543.596390925 83.0559350532 543.596390925 c 0
 65.7984850624 543.596390925 48.4526510212 543.392194405 31 543 c 1
311 800 m 1
 288 800 l 1
 287.607805595 782.547348979 287.403609075 765.201514938 287.403609075 747.944064947 c 0
 287.403609075 501.187804818 329.151202783 272.501497232 460 8 c 1
 482 18 l 1
 350.949101342 281.987421757 310.565480775 507.752363534 310.565480775 754.797153401 c 0
 310.565480775 769.782049276 310.714061103 784.845238448 311 800 c 1
208 712 m 1
 209 688 l 1
 226.280219713 688.392732266 243.444760451 688.596950648 260.513252836 688.596950648 c 0
 504.210078508 688.596950648 728.327505756 646.967157877 990 518 c 1
 1000 539 l 1
 732.844870745 671.161548041 502.227173429 712.425094673 252.623619657 712.425094673 c 0
 237.819726286 712.425094673 222.949047664 712.279944713 208 712 c 1
EndSplineSet
Validated: 524293
EndChar

StartChar: G
Encoding: 71 71 8
Width: 1000
VWidth: 0
Flags: H
HStem: 214.692 62.915<671.277 730.897>
VStem: 669.623 62.9277<216.359 275.955>
LayerCount: 2
Fore
SplineSet
737 -24 m 1
 745 0 l 1
 426 108 216 260 18 466 c 1
 0 449 l 1
 200 240 414 85 737 -24 c 1
745 776 m 1
 737 800 l 1
 414 691 200 536 0 327 c 1
 18 310 l 1
 216 516 426 668 745 776 c 1
1000 234 m 1
 984 254 l 1
 836 133 667 37 446 -38 c 1
 454 -62 l 1
 678 14 849 112 1000 234 c 1
701 215 m 0
 684 215 670 229 670 246 c 0
 670 264 684 278 701 278 c 1
 718 278 733 264 733 246 c 0
 733 229 719 215 701 215 c 0
 701 215 l 0
984 234 m 1
 1000 254 l 1
 849 376 678 473 454 549 c 1
 446 525 l 1
 667 450 836 354 984 234 c 1
EndSplineSet
Validated: 5
EndChar

StartChar: I
Encoding: 73 73 10
Width: 1110
VWidth: 0
Flags: HW
HStem: 746.751 59.6084<18.1613 75.4891>
VStem: 5.49512 24.0938<2.18652 188.712> 17.0244 59.5967<747.888 805.227>
LayerCount: 2
Fore
SplineSet
5 2 m 1xc0
 30 2 l 1
 29.6083405797 19.6899504828 29.4041665057 37.2563310784 29.4041665057 54.7194464053 c 0
 29.4041665057 304.781345249 71.2692729467 533.669099034 204 801 c 1
 182 812 l 1
 46.8324953139 537.884081406 4.58427516975 302.186713151 4.58427516975 46.636171178 c 0
 4.58427516975 31.8278899487 4.72613652749 16.9529455992 5 2 c 1xc0
17 777 m 1
 17 793 30 806 47 806 c 0
 63 806 77 793 77 777 c 2
 77 777 l 2
 77 760 63 747 47 747 c 0
 30 747 17 760 17 777 c 0xa0
 17 777 l 1
EndSplineSet
Validated: 524293
EndChar

StartChar: J
Encoding: 74 74 11
Width: 574
VWidth: 0
Flags: HW
HStem: 734.904 65.0957<366.592 427.721>
VStem: 364.609 65.0957<736.888 798.012>
LayerCount: 2
Fore
SplineSet
365 767 m 1
 365 785 379 800 397 800 c 0
 415 800 430 785 430 767 c 2
 430 767 l 0
 430 749 415 735 397 735 c 0
 379 735 365 749 365 767 c 1
0 -181 m 1
 18 -200 l 1
 234 7 394 228 507 562 c 1
 482 571 l 1
 371 240 213 24 0 -181 c 1
EndSplineSet
Validated: 5
EndChar

StartChar: K
Encoding: 75 75 12
Width: 786
VWidth: 0
Flags: HW
HStem: 737.259 61.2734<-0.13381 58.4055>
VStem: -1.51074 61.2998<738.637 797.149>
LayerCount: 2
Fore
SplineSet
714 789 m 1
 696 806 l 1
 503 605 299 457 -12 352 c 1
 -4 328 l 1
 311 435 519 586 714 789 c 1
29 737 m 0
 12 737 -2 751 -2 768 c 0
 -2 785 12 799 29 799 c 2
 29 799 l 0
 46 799 60 785 60 768 c 0
 60 751 46 737 29 737 c 0
 29 737 l 0
696 -10 m 1
 714 7 l 1
 519 210 311 361 -4 468 c 1
 -12 444 l 1
 299 339 503 191 696 -10 c 1
EndSplineSet
Validated: 5
EndChar

StartChar: L
Encoding: 76 76 13
Width: 901
VWidth: 0
Flags: HW
HStem: 0 22.668<655.541 842.531> 725.149 56.0684<155.3 182.64 182.64 209.918>
VStem: 286.402 22.667<612.053 799.036>
LayerCount: 2
Fore
SplineSet
843 0 m 1
 843 23 l 1
 825.914772669 22.597994651 808.950751563 22.3890214389 792.087483982 22.3890214389 c 0
 557.26353958 22.3890214389 341.976760188 62.9111185688 91 187 c 1
 81 166 l 1
 338 40 559 -0 799 -0 c 0
 814 -0 828 -0 843 0 c 1
183 725 m 1
 167 725 155 738 155 753 c 0
 155 769 167 781 183 781 c 2
 183 781 l 0
 198 781 211 769 211 753 c 0
 211 738 198 725 183 725 c 1
 183 725 l 1
309 800 m 1
 286 799 l 1
 286 782 287 764 287 747 c 0
 287 513 247 299 122 48 c 1
 143 37 l 1
 269.312571982 294.338299634 309.435458814 515.245907607 309.435458814 755.840560051 c 0
 309.435458814 770.483236098 309.286844329 785.198832621 309 800 c 1
EndSplineSet
Validated: 524293
EndChar

StartChar: M
Encoding: 77 77 14
Width: 1447
VWidth: 0
Flags: W
HStem: -34.1602 93.834<1063.19 1142.17>
VStem: 1055.79 93.7754<-26.7414 52.259>
LayerCount: 2
Fore
SplineSet
427.232421875 809.979492188 m 5
 397.786132812 786.087890625 l 5
 577.247070312 564.91015625 720.290039062 314.017578125 831.8125 -15.947265625 c 1
 867.735351562 -3.8046875 l 1
 754.923828125 329.9765625 609.381835938 585.486328125 427.232421875 809.979492188 c 5
427.196289062 786.068359375 m 5
 397.75 809.9609375 l 5
 215.600585938 585.469726562 70.060546875 329.9765625 -42.75390625 -3.8232421875 c 1
 -6.830078125 -15.9658203125 l 1
 104.69140625 314.017578125 247.735351562 564.890625 427.196289062 786.068359375 c 5
962.592773438 809.979492188 m 5
 933.147460938 786.087890625 l 5
 1112.625 564.911132812 1255.63183594 314.018554688 1367.15429688 -15.947265625 c 1
 1403.07910156 -3.8046875 l 1
 1290.26464844 329.9765625 1144.76171875 585.486328125 962.592773438 809.979492188 c 5
1149.56445312 12.767578125 m 5
 1149.56445312 -13.1142578125 1128.57714844 -34.1220703125 1102.63964844 -34.16015625 c 0
 1076.83496094 -34.16015625 1055.7890625 -13.208984375 1055.7890625 12.728515625 c 6
 1055.7890625 12.728515625 1055.7890625 12.7470703125 1055.7890625 12.767578125 c 4
 1055.7890625 38.6083984375 1076.72167969 59.6533203125 1102.63964844 59.673828125 c 0
 1128.5390625 59.673828125 1149.56445312 38.6650390625 1149.56445312 12.767578125 c 5
962.555664062 786.068359375 m 5
 933.110351562 809.962890625 l 5
 750.942382812 585.46875 605.44203125 329.9765625 492.61 -3.822265625 c 1
 528.529296875 -15.9658203125 l 1
 640.071289062 314.018554688 783.077148438 564.890625 962.555664062 786.068359375 c 5
EndSplineSet
Validated: 524293
EndChar

StartChar: N
Encoding: 78 78 15
Width: 1000
VWidth: 0
Flags: H
HStem: -39.6006 93.2783<661.883 740.432>
VStem: 654.515 93.2783<-32.2494 46.3263>
LayerCount: 2
Fore
SplineSet
29 800 m 1
 -0 776 l 1
 179 556 321 307 432 -22 c 1
 467 -9 l 1
 355 323 210 577 29 800 c 1
562 800 m 1
 533 776 l 1
 711 556 853 307 964 -22 c 1
 1000 -9 l 1
 888 323 743 577 562 800 c 1
748 7 m 0
 748 -19 727 -40 701 -40 c 0
 675 -40 655 -19 655 7 c 2
 655 7 l 2
 655 33 675 54 701 54 c 0
 727 54 748 33 748 7 c 2
 748 7 l 0
562 776 m 1
 532 800 l 1
 351 577 207 323 94 -9 c 1
 130 -22 l 1
 241 307 383 556 562 776 c 1
EndSplineSet
Validated: 5
EndChar

StartChar: Z
Encoding: 90 90 16
Width: 1000
VWidth: 0
LayerCount: 2
Fore
SplineSet
770.42578125 347.307617188 m 1
 788.427734375 364.578125 l 1
 592.46875 568.849609375 382.998046875 720.86328125 66 828 c 1
 58.01171875 804.366210938 l 1
 371.2421875 698.50390625 576.393554688 549.5703125 770.42578125 347.307617188 c 1
788.427734375 643.78515625 m 1
 770.42578125 661.055664062 l 1
 576.393554688 458.79296875 371.2421875 309.87109375 58.0126953125 204.021484375 c 1
 66 180.387695312 l 1
 382.998046875 287.51171875 592.46875 439.513671875 788.427734375 643.78515625 c 1
770.42578125 347.307617188 m 1
 788.427734375 364.578125 l 1
 592.46875 568.849609375 382.998046875 720.86328125 66 828 c 1
 58.01171875 804.366210938 l 1
 371.2421875 698.50390625 576.393554688 549.5703125 770.42578125 347.307617188 c 1
71.0185546875 408.662109375 m 1
 53.017578125 391.390625 l 1
 249.013671875 187.108398438 458.483398438 35.09375 775.458007812 -72.0185546875 c 1
 783.444335938 -48.384765625 l 1
 470.240234375 57.4541015625 265.088867188 206.387695312 71.0185546875 408.662109375 c 1
EndSplineSet
Validated: 524293
EndChar

StartChar: H
Encoding: 72 72 17
Width: 796
VWidth: 0
Flags: HW
HStem: 367.999 59.873<362.05 419.59>
VStem: 234.653 24.1953<3.28223 190.588> 360.914 59.8115<369.146 426.731> 518.462 24.1953<0.799805 188.101>
LayerCount: 2
Fore
SplineSet
518 0 m 1
 543 1 l 1
 543 18 542 36 542 53 c 0
 542 304 585 534 718 803 c 1
 696 814 l 1
 560 539 518 302 518 45 c 0
 518 30 518 15 518 0 c 1
361 398 m 0
 361 414 374 428 391 428 c 0
 407 428 421 415 421 398 c 0
 421 398 l 0
 421 381 407 368 391 368 c 0
 374 368 361 381 361 398 c 0
 361 398 l 0
235 3 m 1
 259 3 l 1
 259 20 260 37 260 54 c 0
 260 308 216 543 81 816 c 1
 60 805 l 1
 194.059160866 534.049442475 235.424744284 302.315398486 235.424744284 48.3725637016 c 0
 235.424744284 33.3305539857 235.279607012 18.2106214398 235 3 c 1
EndSplineSet
Validated: 524293
EndChar

StartChar: O
Encoding: 79 79 18
Width: 1310
VWidth: 0
Flags: HW
HStem: 353.885 97.043<633.76 687.325>
VStem: 612.04 97.0049<375.604 429.188>
LayerCount: 2
Fore
SplineSet
651 -4 m 1
 670 28 l 1
 434 164 240 328 52 523 c 1
 24 496 l 1
 213 299 403 138 651 -4 c 1
670 777 m 1
 651 811 l 1
 411 673 213 506 23 309 c 1
 52 282 l 1
 240 477 434 641 670 777 c 1
661 354 m 1
 634 354 612 376 612 402 c 0
 612 429 634 451 661 451 c 1
 687 451 709 429 709 402 c 0
 709 376 687 354 661 354 c 1
1285 496 m 1
 1256 523 l 1
 1068 328 874 164 638 28 c 1
 657 -4 l 1
 905 138 1095 299 1285 496 c 1
1256 282 m 1
 1285 309 l 1
 1095 506 897 673 657 811 c 1
 638 777 l 1
 874 641 1068 477 1256 282 c 1
661 354 m 1
 634 354 612 376 612 402 c 0
 612 429 634 451 661 451 c 1
 687 451 709 429 709 402 c 0
 709 376 687 354 661 354 c 1
EndSplineSet
Validated: 5
EndChar

StartChar: S
Encoding: 83 83 19
Width: 1000
VWidth: 0
LayerCount: 2
Fore
SplineSet
711.641601562 792.853515625 m 5
 704.494140625 814.000976562 l 5
 420.842773438 718.123046875 233.3984375 582.090820312 58.064453125 399.341796875 c 5
 74.1728515625 383.887695312 l 5
 247.782226562 564.83984375 431.364257812 698.1171875 711.641601562 792.853515625 c 5
69.6708984375 578.153320312 m 5
 62.5234375 557.004882812 l 5
 342.801757812 462.279296875 526.3828125 328.9921875 700.00390625 148.049804688 c 5
 716.111328125 163.504882812 l 5
 540.765625 346.2421875 353.322265625 482.286132812 69.6708984375 578.153320312 c 5
711.641601562 792.853515625 m 5
 704.494140625 814.000976562 l 5
 420.842773438 718.123046875 233.3984375 582.090820312 58.064453125 399.341796875 c 5
 74.1728515625 383.887695312 l 5
 247.782226562 564.83984375 431.364257812 698.1171875 711.641601562 792.853515625 c 5
62.5556640625 -14.8564453125 m 5
 69.7041015625 -36.00390625 l 5
 353.333984375 59.8740234375 540.745117188 195.928710938 716.12109375 378.67578125 c 5
 700.014648438 394.131835938 l 5
 526.360351562 213.178710938 342.810546875 79.8798828125 62.5556640625 -14.8564453125 c 5
EndSplineSet
Validated: 524293
EndChar

StartChar: P
Encoding: 80 80 20
Width: 706
VWidth: 0
Flags: HW
HStem: -8.24512 69.9521<76.2032 140.655>
VStem: 73.4502 69.9678<-5.49208 58.9527>
LayerCount: 2
Fore
SplineSet
633 490 m 1
 616 512 l 1
 571 479 525 447 476 417 c 0
 358 344 225 282 69 229 c 1
 78 202 l 1
 236 256 371 319 491 393 c 0
 541 424 587 456 633 490 c 1
108 -8 m 1
 89 -8 73 7 73 27 c 0
 73 46 89 62 108 62 c 1
 128 62 143 46 143 27 c 0
 143 7 128 -8 108 -8 c 1
 108 -8 l 1
618 486 m 1
 465 602 291 696 69 771 c 1
 78 798 l 1
 303 722 480 627 635 509 c 1
 618 486 l 1
EndSplineSet
Validated: 5
EndChar

StartChar: Q
Encoding: 81 81 21
Width: 1348
VWidth: 0
Flags: HW
HStem: 354.87 93.6289<646.107 697.856>
VStem: 625.12 93.7236<375.781 427.53>
LayerCount: 2
Fore
SplineSet
1154 -212 m 1
 1166 -176 l 1
 691 -15 379 211 84 518 c 1
 57 492 l 1
 355 182 673 -49 1154 -212 c 1
681 763 m 1
 663 796 l 1
 431 663 240 502 57 311 c 1
 84 285 l 1
 266 474 453 632 681 763 c 1
672 355 m 1
 646 355 625 376 625 402 c 0
 625 428 646 449 672 449 c 1
 698 449 719 428 719 402 c 0
 719 376 698 355 672 355 c 0
 672 355 l 1
1287 492 m 1
 1260 518 l 1
 1078 329 891 171 663 40 c 1
 682 7 l 1
 913 140 1104 301 1287 492 c 1
1260 285 m 1
 1287 311 l 1
 1104 502 913 663 681 796 c 1
 663 763 l 1
 891 632 1078 474 1260 285 c 1
672 355 m 1
 646 355 625 376 625 402 c 0
 625 428 646 448 672 448 c 0
 672 448 l 0
 698 448 719 428 719 402 c 0
 719 376 698 355 672 355 c 1
EndSplineSet
Validated: 5
EndChar

StartChar: R
Encoding: 82 82 22
Width: 1000
VWidth: 0
Flags: H
HStem: 17.4453 76.1357<78.9099 147.558>
VStem: 75.1514 76.1973<21.195 89.8262>
LayerCount: 2
Fore
SplineSet
892 -19 m 1
 902 10 l 1
 515 140 262 324 22 574 c 1
 0 553 l 1
 242 301 501 113 892 -19 c 1
508 773 m 1
 492 800 l 1
 304 692 149 561 0 406 c 1
 22 384 l 1
 170 538 322 667 508 773 c 1
1000 553 m 1
 978 574 l 1
 830 420 678 292 492 185 c 1
 508 158 l 1
 696 267 851 398 1000 553 c 1
978 384 m 1
 1000 406 l 1
 851 561 696 692 508 800 c 1
 492 773 l 1
 678 667 830 538 978 384 c 1
113 17 m 1
 92 17 75 34 75 56 c 0
 75 77 92 94 113 94 c 0
 113 94 l 2
 134 94 151 77 151 55 c 0
 151 34 134 17 113 17 c 1
EndSplineSet
Validated: 5
EndChar

StartChar: T
Encoding: 84 84 23
Width: 1012
VWidth: 0
Flags: H
HStem: 592.07 25.2832<753.6 936.476>
VStem: 215.98 25.2832<-33.4736 149.405>
LayerCount: 2
Fore
SplineSet
937 592 m 1
 936 617 l 1
 918.556229674 616.631469641 901.229410832 616.440252821 884.001237486 616.440252821 c 0
 620.739520225 616.440252821 380.512060324 661.090415522 98 800 c 1
 87 778 l 1
 372 636 618 591 885 591 c 0
 902 591 919 592 937 592 c 1
216 -34 m 1
 241 -33 l 1
 241 -16 240 2 240 19 c 0
 240 282 285 522 424 805 c 1
 402 816 l 1
 260 531 215 285 215 18 c 0
 215 1 216 -16 216 -34 c 1
EndSplineSet
Validated: 524293
EndChar

StartChar: U
Encoding: 85 85 24
Width: 1000
VWidth: 0
Flags: H
HStem: 730.388 69.6123<93.5312 157.701 756 820.149>
VStem: 753.262 69.6406<733.122 797.225>
LayerCount: 2
Fore
SplineSet
462 1 m 1
 476 25 l 1
 306 123 167 240 32 381 c 1
 12 361 l 1
 148 220 290 100 462 1 c 1
788 730 m 1
 769 730 753 746 753 765 c 0
 753 784 769 800 788 800 c 2
 788 800 l 0
 807 800 823 784 823 765 c 0
 823 746 807 730 788 730 c 1
926 361 m 1
 906 381 l 1
 771 240 632 123 462 25 c 1
 476 1 l 1
 648 100 790 220 926 361 c 1
126 730 m 2
 106 730 91 746 91 765 c 0
 91 784 106 800 126 800 c 2
 126 800 l 2
 145 800 160 784 160 765 c 0
 160 746 145 730 126 730 c 2
 126 730 l 1
 126 730 l 2
EndSplineSet
Validated: 5
EndChar

StartChar: V
Encoding: 86 86 25
Width: 1000
VWidth: 0
LayerCount: 2
Fore
SplineSet
939.999023438 781.04296875 m 5
 914.250976562 789.743164062 l 5
 798.9453125 448.5234375 636.6640625 225.01953125 416.333984375 13.630859375 c 5
 435.150390625 -5.9814453125 l 5
 657.666992188 207.506835938 823.305664062 435.713867188 939.999023438 781.04296875 c 5
85.74609375 789.745117188 m 5
 59.9990234375 781.041015625 l 5
 176.732421875 435.713867188 342.357421875 207.506835938 564.874023438 -5.9814453125 c 5
 583.690429688 13.630859375 l 5
 363.361328125 225.01953125 201.091796875 448.5234375 85.74609375 789.745117188 c 5
EndSplineSet
Validated: 524293
EndChar

StartChar: W
Encoding: 87 87 26
Width: 1494
VWidth: 0
Flags: HW
HStem: 773.9 69.7812<676.882 741.126>
VStem: 674.143 69.7393<776.652 840.94>
LayerCount: 2
Fore
SplineSet
983 807 m 1
 956 816 l 1
 836 461 668 229 439 10 c 1
 459 -11 l 1
 690 211 861 448 983 807 c 1
96 816 m 1
 69 807 l 1
 190 448 362 211 593 -11 c 1
 613 10 l 1
 384 229 215 461 96 816 c 1
1349 804 m 1
 1322 813 l 1
 1203 459 1034 227 805 8 c 1
 825 -13 l 1
 1056 209 1228 446 1349 804 c 1
462 813 m 1
 435 804 l 1
 557 446 729 209 960 -13 c 1
 979 8 l 1
 750 227 582 459 462 813 c 1
674 809 m 1
 674 828 690 844 709 844 c 0
 728 844 744 828 744 809 c 2
 744 809 l 2
 744 790 728 774 709 774 c 0
 690 774 674 790 674 809 c 1
EndSplineSet
Validated: 5
EndChar

StartChar: X
Encoding: 88 88 27
Width: 744
VWidth: 0
Flags: HW
HStem: 711.134 66.8994<359.349 422.138>
VStem: 357.321 66.8574<713.172 776.002>
LayerCount: 2
Fore
SplineSet
550 -3 m 1
 569 16 l 1
 349 227 188 449 73 789 c 1
 47 780 l 1
 164 436 328 209 550 -3 c 1
357 745 m 1
 357 763 372 778 391 778 c 0
 409 778 424 763 424 745 c 2
 424 745 l 2
 424 726 409 711 391 711 c 0
 372 711 357 726 357 745 c 1
176 16 m 1
 194 -3 l 1
 416 209 581 436 697 780 c 1
 671 789 l 1
 557 449 395 227 176 16 c 1
EndSplineSet
Validated: 5
EndChar

StartChar: Y
Encoding: 89 89 28
Width: 772
VWidth: 0
Flags: HWO
HStem: 724.716 69.2783<386.716 451.152>
VStem: 384.303 69.251<727.121 791.589>
LayerCount: 2
Fore
SplineSet
389 195 m 1
 411 213 l 1
 278 376 172 561 90 805 c 1
 63 796 l 1
 147 549 254 361 389 195 c 1
384 759 m 0
 384 778 400 794 419 794 c 0
 438 794 454 779 454 759 c 2
 454 759 l 2
 454 740 438 725 419 725 c 0
 400 725 384 740 384 759 c 0
 384 759 l 0
196 5 m 1
 216 -15 l 1
 286 53 351 122 411 195 c 0
 545 361 653 549 736 796 c 1
 709 805 l 1
 627 561 521 376 389 213 c 0
 330 140 266 72 196 5 c 1
EndSplineSet
Validated: 5
EndChar
